<svg width="30" height="37" viewBox="0 0 30 37" fill="none" xmlns="http://www.w3.org/2000/svg">
<path d="M30 15.0942C30 23.3785 15 36.0942 15 36.0942C15 36.0942 0 23.3785 0 15.0942C0 6.80997 6.71573 0.0942383 15 0.0942383C23.2843 0.0942383 30 6.80997 30 15.0942Z" fill="#2182B1"/>
<path d="M18.6938 21.942C16.3374 20.1583 9.94158 13.3578 7.92188 11.0167C6.57536 8.89855 11.5125 8.22965 13.4201 6C14.2055 7.33777 13.9811 9.07693 14.8788 9.79041C15.7764 10.5039 17.7962 10.385 18.6938 10.2363C19.6663 12.5775 21.6339 16.9588 21.9479 17.0368C22.3967 17.1483 25.5385 17.8172 25.5385 20.1583C25.5385 22.4994 22.2845 21.942 18.6938 21.942ZM18.6938 21.942H8.76931M8.59509 9.34447C11.5873 12.8376 18.0445 19.9147 19.0304 20.3812C22.1723 20.3812 23.7432 20.6042 25.3141 20.3812M11.0637 7.8952C11.9239 8.37829 13.1507 9.83499 11.1759 11.7971M17.7961 12.6889L19.3671 12.3545M18.4694 14.0267L20.0403 13.6923M19.1426 15.5875L20.7136 15.253" stroke="white" stroke-linecap="round" stroke-linejoin="round"/>
<path d="M11.3845 17.6924H9.10534H8.30762" stroke="white" stroke-linecap="round" stroke-linejoin="round"/>
<path d="M9.84614 6.30762L7.79485 6.30762L7.0769 6.30762" stroke="white" stroke-linecap="round" stroke-linejoin="round"/>
<path d="M8.30769 14L5.11681 14H4" stroke="white" stroke-linecap="round" stroke-linejoin="round"/>
<path d="M6.15387 17.6924H5.24218H4.9231" stroke="white" stroke-linecap="round" stroke-linejoin="round"/>
</svg>
