<svg width="30" height="37" viewBox="0 0 30 37" fill="none" xmlns="http://www.w3.org/2000/svg">
<path d="M30 15.1885C30 23.4727 15 36.1885 15 36.1885C15 36.1885 0 23.4727 0 15.1885C0 6.90421 6.71573 0.188477 15 0.188477C23.2843 0.188477 30 6.90421 30 15.1885Z" fill="#2182B1"/>
<path d="M17.4824 11.8179L18.2388 11.0615C18.6318 10.6686 18.629 10.0307 18.2327 9.64119L12.177 3.689C11.7879 3.30657 11.1641 3.30657 10.7751 3.689L4.71935 9.64119C4.32307 10.0307 4.32032 10.6686 4.71323 11.0615L10.7689 17.1172C11.1595 17.5077 11.7926 17.5077 12.1831 17.1172L13.2013 16.099M17.4824 11.8179H23C23.5523 11.8179 24 12.2656 24 12.8179V22C24 22.5523 23.5523 23 23 23H14.2013C13.649 23 13.2013 22.5523 13.2013 22V16.099M17.4824 11.8179L13.2013 16.099M17.8396 17.6326V17.6326C17.8396 18.1619 18.2687 18.5911 18.798 18.5911V18.5911C19.3274 18.5911 19.7565 18.1619 19.7565 17.6326V17.6326C19.7565 17.1032 19.3274 16.6741 18.798 16.6741V16.6741C18.2687 16.6741 17.8396 17.1032 17.8396 17.6326ZM8.70868 10.7434L8.65977 10.7887C8.32526 11.0984 7.80583 11.0888 7.48298 10.7669V10.7669C7.14144 10.4264 7.15172 9.87006 7.50561 9.54234L7.55451 9.49705C7.88903 9.18727 8.40846 9.19687 8.7313 9.5188V9.5188C9.07284 9.85936 9.06256 10.4157 8.70868 10.7434ZM10.8051 14.4058V14.4058C11.1757 14.7763 11.7764 14.7763 12.147 14.4058V14.4058C12.5175 14.0352 12.5175 13.4344 12.147 13.0639V13.0639C11.7764 12.6934 11.1757 12.6934 10.8051 13.0639V13.0639C10.4346 13.4344 10.4346 14.0352 10.8051 14.4058ZM13.9361 11.147V11.147C14.2714 11.4822 14.8149 11.4822 15.1502 11.147V11.147C15.4854 10.8117 15.4854 10.2682 15.1502 9.93291V9.93291C14.8149 9.59765 14.2714 9.59765 13.9361 9.93291V9.93291C13.6008 10.2682 13.6008 10.8117 13.9361 11.147ZM12.0831 6.73802V6.73802C11.7478 6.40277 11.2043 6.40277 10.869 6.73802V6.73802C10.5338 7.07327 10.5338 7.61682 10.869 7.95208V7.95208C11.2043 8.28733 11.7478 8.28733 12.0831 7.95208V7.95208C12.4183 7.61682 12.4183 7.07327 12.0831 6.73802Z" stroke="white" stroke-linecap="round" stroke-linejoin="round"/>
</svg>
