<svg width="30" height="37" viewBox="0 0 30 37" fill="none" xmlns="http://www.w3.org/2000/svg">
<path d="M30 15.0942C30 23.3785 15 36.0942 15 36.0942C15 36.0942 0 23.3785 0 15.0942C0 6.80997 6.71573 0.0942383 15 0.0942383C23.2843 0.0942383 30 6.80997 30 15.0942Z" fill="#FF6161"/>
<path d="M11 12.9999V23.9999M11 14.1683V9.88984C11 9.32321 11.2383 8.78039 11.6797 8.42513C12.0726 8.10893 12.5723 7.73427 13 7.4997C14.9142 6.44999 15.8203 8.12104 18 7.99994C18.9207 7.94879 20.7786 6.65584 20.9818 6.51256C20.9946 6.50358 21.0055 6.49416 21.0166 6.48313C21.195 6.30478 21.5 6.43065 21.5 6.68293V12.6757C21.5 12.8906 21.4681 13.1059 21.3896 13.306C20.9209 14.4999 20.4048 14.4999 19.5 14.4999C17.9379 14.4999 16.2597 12.4346 15 12.9999C14.1037 13.4022 13.0723 14.4072 12.6716 14.8193C12.5575 14.9367 12.4185 15.0271 12.2631 15.0789C11.6417 15.2859 11 14.8233 11 14.1683Z" stroke="white" stroke-linecap="round" stroke-linejoin="round"/>
</svg>
