<svg width="30" height="37" viewBox="0 0 30 37" fill="none" xmlns="http://www.w3.org/2000/svg">
<path d="M30 15.0942C30 23.3785 15 36.0942 15 36.0942C15 36.0942 0 23.3785 0 15.0942C0 6.80997 6.71573 0.0942383 15 0.0942383C23.2843 0.0942383 30 6.80997 30 15.0942Z" fill="#2182B1"/>
<path d="M20.6984 11.2733C20.6984 11.2733 20.1132 12.0672 19.5959 12.3935C18.9627 12.7928 18.3191 12.4177 17.7582 12.9163C17.1702 13.439 8.93764 21.8034 8.12908 22.6249C7.64194 23.1198 6.84164 23.1302 6.36497 22.6249C5.90815 22.1406 5.84942 21.3262 6.36497 20.9072C6.59801 20.7178 10.3185 17.0151 13.085 14.2546M20.6984 11.2733L19.1181 9.6676M20.6984 11.2733L23.7856 8.13663M17.5377 8.06194C17.5377 8.06194 16.5208 8.87139 16.2146 9.40621C15.8042 10.1233 16.645 10.6867 16.0676 11.2733C16.0202 11.3215 15.7449 11.5972 15.3151 12.027M17.5377 8.06194L20.5514 5M17.5377 8.06194L19.1181 9.6676M19.1181 9.6676L22.1685 6.56831M7.86663 5.07471C7.86663 5.07471 21.0659 18.3681 23.6702 21.0566C24.1132 21.5139 24.1067 22.2359 23.6702 22.6996C23.2138 23.1843 22.5722 22.9668 22.1266 22.5502C19.8899 20.4591 8.82222 10.0784 7.86663 9.03284C6.80325 7.86936 7.86663 5.07471 7.86663 5.07471Z" stroke="white" stroke-linecap="round" stroke-linejoin="round"/>
</svg>
