<svg width="30" height="37" viewBox="0 0 30 37" fill="none" xmlns="http://www.w3.org/2000/svg">
<path d="M30 15.0942C30 23.3785 15 36.0942 15 36.0942C15 36.0942 0 23.3785 0 15.0942C0 6.80997 6.71573 0.0942383 15 0.0942383C23.2843 0.0942383 30 6.80997 30 15.0942Z" fill="#2182B1"/>
<path d="M11.3766 25H22C23.1046 25 24 24.1046 24 23V17.338C24 16.2334 23.1046 15.338 22 15.338H17.6883M11.3766 25V17.338C11.3766 16.2334 12.2721 15.338 13.3766 15.338H17.6883M11.3766 25H8C6.89543 25 6 24.1046 6 23V12.1699C6 11.0653 6.89543 10.1699 8 10.1699H8.57143M17.6883 15.338V12.1699C17.6883 11.0653 16.7929 10.1699 15.6883 10.1699H14.8831M8.57143 10.1699C8.57143 10.1699 8.14285 8.17614 8.80519 7.0241C9.51719 5.78569 10.3729 4.95582 11.8442 5.00181C13.2369 5.04535 13.9755 5.85164 14.6494 7.0241C15.3115 8.17625 14.8831 10.1699 14.8831 10.1699M8.57143 10.1699H14.8831M15.1169 17.5849C15.5844 18.7084 16.2682 20.0566 17.6883 20.0566C19.1085 20.0566 19.5584 18.7084 20.2597 17.5849" stroke="white" stroke-linecap="square"/>
</svg>
