<svg width="30" height="37" viewBox="0 0 30 37" fill="none" xmlns="http://www.w3.org/2000/svg">
<path d="M30 16C30 24.2843 15 37 15 37C15 37 0 24.2843 0 16C0 7.71573 6.71573 1 15 1C23.2843 1 30 7.71573 30 16Z" fill="#2182B1"/>
<path d="M6.67021 12.3566H23.3298M6.67021 12.3566V12.3566C6.30006 12.3566 6 12.0565 6 11.6864V11.319C6 10.746 6.46452 10.2815 7.03753 10.2815H9.01596M6.67021 12.3566V18.63M23.3298 12.3566V12.3566C23.6999 12.3566 24 12.0565 24 11.6864V10.9517C24 10.5816 23.6999 10.2815 23.3298 10.2815V10.2815M23.3298 12.3566V18.63M6.67021 10.1367V9C6.67021 7.89543 7.56564 7 8.67021 7H9.01596M23.3298 10.2815V9C23.3298 7.89543 22.4344 7 21.3298 7H20.984M23.3298 10.2815H18.5904M20.984 7V10.1367M20.984 7H18.5904M18.5904 7V10.2815M18.5904 7H16.1489M18.5904 10.2815H16.1489M16.1489 7V10.2815M16.1489 7H13.7553M16.1489 10.2815H13.7553M13.7553 10.2815V7M13.7553 10.2815H11.5053M13.7553 7H11.5053M11.5053 7V10.2815M11.5053 7H9.01596M11.5053 10.2815H9.01596M9.01596 10.2815V7M6.67021 22.5871V23C6.67021 24.1046 7.56564 25 8.67021 25H9.50532C10.6099 25 11.5053 24.1046 11.5053 23V22.5871M6.67021 22.5871H11.5053M6.67021 22.5871V18.63M11.5053 22.5871V18.63M18.3989 22.5871V23C18.3989 24.1046 19.2944 25 20.3989 25H21.3298C22.4344 25 23.3298 24.1046 23.3298 23V22.5871M18.3989 22.5871H23.3298M18.3989 22.5871V18.63M23.3298 22.5871V18.63M23.3298 18.63H18.3989M18.3989 18.63C18.3989 18.63 18.4213 18.2466 18.3989 18.0027C18.2342 16.2089 16.7869 14.9391 15 14.9142C13.1852 14.889 11.6725 16.1809 11.5053 18.0027C11.4829 18.2466 11.5053 18.63 11.5053 18.63M11.5053 18.63H6.67021" stroke="white" stroke-linecap="round" stroke-linejoin="round"/>
</svg>
