<svg width="30" height="37" viewBox="0 0 30 37" fill="none" xmlns="http://www.w3.org/2000/svg">
<path d="M30 15.1885C30 23.4727 15 36.1885 15 36.1885C15 36.1885 0 23.4727 0 15.1885C0 6.90421 6.71573 0.188477 15 0.188477C23.2843 0.188477 30 6.90421 30 15.1885Z" fill="#2182B1"/>
<path d="M8.00813 19.9907V20.4959C8.00813 21.3266 7.33474 22 6.50406 22V22C5.67339 22 5 21.3266 5 20.4959V19.9907M8.00813 19.9907H5M8.00813 19.9907H21.9919M5 19.9907V17.5796M25 19.9907V20.4959C25 21.3266 24.3266 22 23.4959 22V22C22.6653 22 21.9919 21.3266 21.9919 20.4959V19.9907M25 19.9907H21.9919M25 19.9907V17.5796M6.46341 12.7573V12.7573C5.65519 12.7573 5 13.4125 5 14.2207V17.5796M6.46341 12.7573C6.46341 12.7573 6.46341 10.0247 6.46341 8.41725C6.46341 6.80982 11.2796 6.08107 14.5935 6.00611C18.182 5.92494 23.4553 6.64907 23.4553 8.41725C23.4553 10.1854 23.4553 12.7573 23.4553 12.7573M6.46341 12.7573H8.41463M23.4553 12.7573V12.7573C24.3084 12.7573 25 13.4489 25 14.302V17.5796M23.4553 12.7573H21.5854M16.4634 12.7573V12.7573C16.4634 11.5588 17.435 10.5873 18.6334 10.5873H19.4153C20.6138 10.5873 21.5854 11.5588 21.5854 12.7573V12.7573M16.4634 12.7573H21.5854M16.4634 12.7573H13.4553M13.4553 12.7573V12.7573C13.4553 11.5588 12.4837 10.5873 11.2853 10.5873H10.5847C9.38619 10.5873 8.41463 11.5588 8.41463 12.7573V12.7573M13.4553 12.7573H8.41463M5 17.5796H25" stroke="white" stroke-linecap="round" stroke-linejoin="round"/>
</svg>
