<svg width="30" height="37" viewBox="0 0 30 37" fill="none" xmlns="http://www.w3.org/2000/svg">
<path d="M30 15.0942C30 23.3785 15 36.0942 15 36.0942C15 36.0942 0 23.3785 0 15.0942C0 6.80997 6.71573 0.0942383 15 0.0942383C23.2843 0.0942383 30 6.80997 30 15.0942Z" fill="#10C093"/>
<path d="M20 9.5V24.5C20 25.3284 19.3284 26 18.5 26H11.5C10.6716 26 10 25.3284 10 24.5V9.5C10 8.99968 10.2445 8.55648 10.6226 8.28316C10.9116 8.07433 11.2463 7.80989 11.5106 7.48918C11.7768 7.1661 12 6.75112 12 6.25C12 5.83579 12.3358 5.5 12.75 5.5H15H17.25C17.6642 5.5 18 5.83579 18 6.25C18 6.75112 18.2232 7.1661 18.4894 7.48918C18.7537 7.80989 19.0884 8.07433 19.3774 8.28316C19.7555 8.55648 20 8.99968 20 9.5Z" stroke="white"/>
<path d="M16 11L13 16H16.5L14.5 20.5" stroke="white" stroke-linecap="round" stroke-linejoin="round"/>
</svg>
