<svg width="30" height="37" viewBox="0 0 30 37" fill="none" xmlns="http://www.w3.org/2000/svg">
<path d="M30 15.1885C30 23.4727 15 36.1885 15 36.1885C15 36.1885 0 23.4727 0 15.1885C0 6.90421 6.71573 0.188477 15 0.188477C23.2843 0.188477 30 6.90421 30 15.1885Z" fill="#2182B1"/>
<path d="M6 9C6 12.4476 6 17.305 6 20.0002C6 21.1048 6.89543 22 8 22H21C22.1046 22 23 21.1046 23 20V9M6 9C6.5182 10.5607 7.21782 12.6678 7.67023 14.0303C7.94177 14.8481 8.70658 15.4 9.5683 15.4H12.1818M6 9C8.03694 9 11.2159 9 11.2159 9M23 9L21.1595 14.0811C20.8728 14.8727 20.121 15.4 19.2791 15.4H16.8182M23 9H17.5909M11.2159 9V9C11.2159 7.89543 12.1113 7 13.2159 7H15.5909C16.6955 7 17.5909 7.89543 17.5909 9V9M11.2159 9H17.5909M15.6182 14.4H13.3818C12.7191 14.4 12.1818 14.9373 12.1818 15.6V15.6C12.1818 16.2627 12.7191 16.8 13.3818 16.8H15.6182C16.2809 16.8 16.8182 16.2627 16.8182 15.6V15.6C16.8182 14.9373 16.2809 14.4 15.6182 14.4Z" stroke="white" stroke-linecap="round" stroke-linejoin="round"/>
</svg>
