<svg width="72" height="54" viewBox="0 0 72 54" fill="none" xmlns="http://www.w3.org/2000/svg">
<path d="M48.7548 52.8115C41.0964 47.0144 20.3099 24.913 13.7459 17.3043C9.36967 10.4203 25.4154 8.24635 31.6149 1C34.1676 5.34777 33.4384 11 36.3558 13.3188C39.2732 15.6377 45.8374 15.2512 48.7548 14.7681C51.9153 22.3768 58.3099 36.616 59.3304 36.8695C60.7891 37.2318 71 39.4057 71 47.0144C71 54.6231 60.4243 52.8115 48.7548 52.8115ZM48.7548 52.8115H16.5M15.9338 11.8695C25.6585 23.2221 46.6443 46.2229 49.8487 47.739C60.0596 47.739 65.1651 48.4636 70.2705 47.739M23.9567 7.1594C26.7525 8.72944 30.7396 13.4637 24.3213 19.8405M45.8372 22.7391L50.9427 21.6521M48.0253 27.0869L53.1308 25.9999M50.2133 32.1593L55.3188 31.0724" stroke="#2182B1" stroke-width="2" stroke-linecap="round" stroke-linejoin="round"/>
<path d="M25 39H17.5926H15" stroke="#2182B1" stroke-width="2" stroke-linecap="round" stroke-linejoin="round"/>
<path d="M20 2L13.3333 2L11 2" stroke="#2182B1" stroke-width="2" stroke-linecap="round" stroke-linejoin="round"/>
<path d="M15 27L4.62963 27H1" stroke="#2182B1" stroke-width="2" stroke-linecap="round" stroke-linejoin="round"/>
<path d="M8 39H5.03704H4" stroke="#2182B1" stroke-width="2" stroke-linecap="round" stroke-linejoin="round"/>
</svg>
