<svg width="22" height="22" viewBox="0 0 22 22" fill="none" xmlns="http://www.w3.org/2000/svg">
<path d="M11 7V11L13.5 13.5M11 1.66667V3.4804M20.3333 11H18.3333M11 20.3333V18.3333M1.66667 11H3.66667M4.40034 4.40034L5.68284 5.68284M17.5997 4.40034L16.1854 5.81455M17.5997 17.5997L16.1854 16.1855M4.40034 17.5997L5.81455 16.1855M21 11C21 16.5228 16.5228 21 11 21C5.47715 21 1 16.5228 1 11C1 5.47715 5.47715 1 11 1C16.5228 1 21 5.47715 21 11Z" stroke="#10C093" stroke-width="2" stroke-linecap="round" stroke-linejoin="round"/>
</svg>
