<svg width="52" height="52" viewBox="0 0 52 52" fill="none" xmlns="http://www.w3.org/2000/svg">
<path d="M34.0543 21.9265L34.3093 21.6716C36.2738 19.707 36.26 16.5177 34.2786 14.5702L21.9426 2.44501C19.9972 0.532852 16.8782 0.532851 14.9328 2.44501L2.59675 14.5702C0.615356 16.5177 0.601608 19.707 2.56614 21.6716L14.9022 34.0076C16.8548 35.9602 20.0206 35.9602 21.9732 34.0076L22.9233 33.0575M34.0543 21.9265H46C48.7614 21.9265 51 24.1651 51 26.9265V46C51 48.7614 48.7614 51 46 51H27.9233C25.1619 51 22.9233 48.7614 22.9233 46V33.0575M34.0543 21.9265L22.9233 33.0575M34.9829 37.0447V37.0447C34.9829 38.421 36.0986 39.5367 37.4749 39.5367V39.5367C38.8512 39.5367 39.9669 38.421 39.9669 37.0447V37.0447C39.9669 35.6684 38.8512 34.5527 37.4749 34.5527V34.5527C36.0986 34.5527 34.9829 35.6684 34.9829 37.0447ZM11.2426 19.1328L11.1154 19.2505C10.2457 20.0559 8.89515 20.031 8.05576 19.194V19.194C7.16776 18.3085 7.19448 16.8622 8.11458 16.0101L8.24173 15.8923C9.11148 15.0869 10.462 15.1119 11.3014 15.9489V15.9489C12.1894 16.8343 12.1627 18.2807 11.2426 19.1328ZM16.6933 28.655V28.655C17.6567 29.6184 19.2187 29.6184 20.1821 28.655V28.655C21.1455 27.6915 21.1455 26.1295 20.1821 25.1661V25.1661C19.2187 24.2027 17.6567 24.2027 16.6933 25.1661V25.1661C15.7299 26.1295 15.7299 27.6915 16.6933 28.655ZM24.8339 20.1821V20.1821C25.7055 21.0538 27.1188 21.0538 27.9904 20.1821V20.1821C28.8621 19.3105 28.8621 17.8972 27.9904 17.0256V17.0256C27.1188 16.1539 25.7055 16.1539 24.8339 17.0256V17.0256C23.9622 17.8972 23.9622 19.3105 24.8339 20.1821ZM20.016 8.71885V8.71885C19.1443 7.84719 17.7311 7.84719 16.8594 8.71885V8.71885C15.9878 9.59051 15.9878 11.0037 16.8594 11.8754V11.8754C17.7311 12.7471 19.1443 12.7471 20.016 11.8754V11.8754C20.8876 11.0037 20.8876 9.59051 20.016 8.71885Z" stroke="#2182B1" stroke-width="2" stroke-linecap="round" stroke-linejoin="round"/>
</svg>
