<svg width="54" height="54" viewBox="0 0 54 54" fill="none" xmlns="http://www.w3.org/2000/svg">
<path d="M43.4621 19.1227C43.4621 19.1227 41.7715 21.4163 40.2769 22.3589C38.4478 23.5126 36.5884 22.4288 34.9682 23.8692C33.2694 25.3794 9.4865 49.5431 7.15069 51.9163C5.74337 53.3461 3.43141 53.3762 2.05435 51.9163C0.734664 50.5172 0.564996 48.1647 2.05435 46.9541C2.72758 46.4069 13.4758 35.7102 21.4678 27.7355M43.4621 19.1227L38.8966 14.4842M43.4621 19.1227L52.3807 10.0614M34.3312 9.84561C34.3312 9.84561 31.3933 12.184 30.5089 13.7291C29.3231 15.8006 31.7521 17.4282 30.0842 19.1227C29.9471 19.262 29.1521 20.0586 27.9104 21.3003M34.3312 9.84561L43.0374 1M34.3312 9.84561L38.8966 14.4842M38.8966 14.4842L47.7091 5.53066M6.39248 1.21582C6.39248 1.21582 44.5238 39.6188 52.0472 47.3857C53.3269 48.7068 53.3082 50.7927 52.0472 52.1321C50.7288 53.5325 48.8752 52.9041 47.588 51.7007C41.1262 45.6597 9.15308 15.6709 6.39248 12.6504C3.32051 9.28927 6.39248 1.21582 6.39248 1.21582Z" stroke="#2182B1" stroke-width="2" stroke-linecap="round" stroke-linejoin="round"/>
</svg>
