<svg width="57" height="57" viewBox="0 0 57 57" fill="none" xmlns="http://www.w3.org/2000/svg">
<path d="M28.4871 0C12.7791 0 0 12.7849 0 28.4998C0 44.2149 12.7791 57 28.4871 57C44.1952 57 56.9743 44.2149 56.9743 28.4998C56.9743 12.7849 44.1952 0 28.4871 0ZM30.4249 53.0486V41.2889C30.4249 40.219 29.5573 39.3511 28.4871 39.3511C27.417 39.3511 26.5493 40.2188 26.5493 41.2889V53.0486C14.5198 52.1066 4.89221 42.4734 3.95142 30.4378H15.6982C16.7682 30.4378 17.636 29.5701 17.636 28.5C17.636 27.4299 16.7682 26.5622 15.6982 26.5622H3.95142C4.89221 14.5264 14.5198 4.89336 26.5493 3.95142V15.7111C26.5493 16.781 27.417 17.6489 28.4871 17.6489C29.5573 17.6489 30.4249 16.7812 30.4249 15.7111V3.95142C42.4546 4.89336 52.0823 14.5266 53.0229 26.5622H41.2761C40.2061 26.5622 39.3383 27.4299 39.3383 28.5C39.3383 29.5701 40.2059 30.4378 41.2761 30.4378H53.0229C52.0819 42.4736 42.4543 52.1066 30.4249 53.0486Z" fill="black"/>
</svg>
