<svg width="48" height="54" viewBox="0 0 48 54" fill="none" xmlns="http://www.w3.org/2000/svg">
<path d="M14.7403 53H42C44.7614 53 47 50.7614 47 48V32.8787C47 30.1173 44.7614 27.8787 42 27.8787H30.8701M14.7403 53V32.8787C14.7403 30.1173 16.9788 27.8787 19.7403 27.8787H30.8701M14.7403 53H6C3.23858 53 1 50.7614 1 48V19.4417C1 16.6803 3.23858 14.4417 6 14.4417H7.57143M30.8701 27.8787V19.4417C30.8701 16.6803 28.6316 14.4417 25.8701 14.4417H23.7013M7.57143 14.4417C7.57143 14.4417 6.47617 9.25796 8.16883 6.26266C9.98839 3.0428 12.1752 0.885134 15.9351 1.00471C19.4944 1.1179 21.3819 3.21428 23.1039 6.26266C24.796 9.25824 23.7013 14.4417 23.7013 14.4417M7.57143 14.4417H23.7013M24.2987 33.7209C25.4935 36.6419 27.2408 40.1472 30.8701 40.1472C34.4994 40.1472 35.6493 36.6419 37.4416 33.7209" stroke="#2182B1" stroke-width="2" stroke-linecap="round" stroke-linejoin="round"/>
</svg>
