<svg width="54" height="54" viewBox="0 0 54 54" fill="none" xmlns="http://www.w3.org/2000/svg">
<path d="M2.93617 16.4745H51.0638M2.93617 16.4745V16.4745C1.86685 16.4745 1 15.6077 1 14.5384V12.4799C1 11.3753 1.89543 10.4799 3 10.4799H9.71277M2.93617 16.4745V34.5979M51.0638 16.4745V16.4745C52.1331 16.4745 53 15.6077 53 14.5384V12.4161C53 11.3467 52.1331 10.4799 51.0638 10.4799V10.4799M51.0638 16.4745V34.5979M2.93617 10.0617V3C2.93617 1.89543 3.8316 1 4.93617 1H9.71277M51.0638 10.4799V3C51.0638 1.89543 50.1684 1 49.0638 1H44.2872M51.0638 10.4799H37.3723M44.2872 1V10.0617M44.2872 1H37.3723M37.3723 1V10.4799M37.3723 1H30.3191M37.3723 10.4799H30.3191M30.3191 1V10.4799M30.3191 1H23.4043M30.3191 10.4799H23.4043M23.4043 10.4799V1M23.4043 10.4799H16.9043M23.4043 1H16.9043M16.9043 1V10.4799M16.9043 1H9.71277M16.9043 10.4799H9.71277M9.71277 10.4799V1M2.93617 46.0295V51C2.93617 52.1046 3.8316 53 4.93617 53H14.9043C16.0088 53 16.9043 52.1046 16.9043 51V46.0295M2.93617 46.0295H16.9043M2.93617 46.0295V34.5979M16.9043 46.0295V34.5979M36.8191 46.0295V51C36.8191 52.1046 37.7146 53 38.8191 53H49.0638C50.1684 53 51.0638 52.1046 51.0638 51V46.0295M36.8191 46.0295H51.0638M36.8191 46.0295V34.5979M51.0638 46.0295V34.5979M51.0638 34.5979H36.8191M36.8191 34.5979C36.8191 34.5979 36.8839 33.4903 36.8191 32.7855C36.3432 27.6036 32.1621 23.9351 27 23.8633C21.7572 23.7904 17.3873 27.5225 16.9043 32.7855C16.8396 33.4903 16.9043 34.5979 16.9043 34.5979M16.9043 34.5979H2.93617" stroke="#2182B1" stroke-width="2" stroke-linecap="round" stroke-linejoin="round"/>
</svg>
