<svg width="54" height="44" viewBox="0 0 54 44" fill="none" xmlns="http://www.w3.org/2000/svg">
<path d="M8.82114 37.7256V39.0894C8.82114 41.2492 7.07032 43 4.91057 43V43C2.75082 43 1 41.2492 1 39.0894V37.7256M8.82114 37.7256H1M8.82114 37.7256H45.1789M1 37.7256V31.3964M53 37.7256V39.0894C53 41.2492 51.2492 43 49.0894 43V43C46.9297 43 45.1789 41.2492 45.1789 39.0894V37.7256M53 37.7256H45.1789M53 37.7256V31.3964M4.80488 18.7379V18.7379C2.7035 18.7379 1 20.4414 1 22.5428V31.3964M4.80488 18.7379C4.80488 18.7379 4.80488 11.5648 4.80488 7.34527C4.80488 3.12577 17.3269 1.2128 25.9431 1.01603C35.2732 0.802955 48.9837 2.70381 48.9837 7.34527C48.9837 11.9867 48.9837 18.7379 48.9837 18.7379M4.80488 18.7379H9.87805M48.9837 18.7379V18.7379C51.2019 18.7379 53 20.536 53 22.7542V31.3964M48.9837 18.7379H44.122M30.8049 18.7379V18.0416C30.8049 15.2802 33.0435 13.0416 35.8049 13.0416H39.122C41.8834 13.0416 44.122 15.2802 44.122 18.0416V18.7379M30.8049 18.7379H44.122M30.8049 18.7379H22.9837M22.9837 18.7379V18.0416C22.9837 15.2802 20.7452 13.0416 17.9837 13.0416H14.8781C12.1166 13.0416 9.87805 15.2802 9.87805 18.0416V18.7379M22.9837 18.7379H9.87805M1 31.3964H53" stroke="#2182B1" stroke-width="2" stroke-linecap="round" stroke-linejoin="round"/>
</svg>
