<svg width="54" height="48" viewBox="0 0 54 48" fill="none" xmlns="http://www.w3.org/2000/svg">
<path d="M1 7.13333C1.00001 18.2098 1.00001 34.0315 1 42.0028C1 44.7642 3.23858 47 6 47H48C50.7614 47 53 44.7614 53 42V7.13333M1 7.13333C2.68691 12.2269 5.00235 19.2184 6.36594 23.3357C7.04367 25.3821 8.95544 26.76 11.1112 26.76H19.9091M1 7.13333C7.23064 7.13333 16.9545 7.13333 16.9545 7.13333M53 7.13333L47.1017 23.459C46.386 25.44 44.5055 26.76 42.3992 26.76H34.0909M53 7.13333H36.4545M16.9545 7.13333V6C16.9545 3.23858 19.1931 1 21.9545 1H31.4545C34.216 1 36.4545 3.23858 36.4545 6V7.13333M16.9545 7.13333H36.4545M19.9091 31.0533V23.6933H34.0909V31.0533H19.9091Z" stroke="#2182B1" stroke-width="2" stroke-linecap="round" stroke-linejoin="round"/>
</svg>
