<svg width="300" height="300" viewBox="0 0 300 300" fill="none" xmlns="http://www.w3.org/2000/svg">
<path d="M58.7903 218.287V218.287C49.6683 218.287 45.1073 218.287 41.4987 216.827C36.4757 214.795 32.4923 210.811 30.46 205.788C29 202.18 29 197.619 29 188.497V143.069C29 129.025 29 122.002 32.3706 116.958C33.8298 114.774 35.7048 112.899 37.8886 111.44C42.9331 108.069 49.9554 108.069 64 108.069H123.045" stroke="#4CCEAD" stroke-width="6" stroke-linecap="round" stroke-linejoin="round"/>
<path d="M116.456 101.297C116.456 95.7742 120.933 91.297 126.456 91.297H151.198V126.04H126.456C120.933 126.04 116.456 121.562 116.456 116.04V101.297Z" fill="#4CCEAD"/>
<path d="M170.366 101.48C170.366 99.8261 169.026 98.4852 167.371 98.4852H148.802V104.475H167.371C169.026 104.475 170.366 103.134 170.366 101.48V101.48Z" fill="#4CCEAD"/>
<path d="M170.366 115.856C170.366 114.202 169.026 112.861 167.371 112.861H148.802V118.851H167.371C169.026 118.851 170.366 117.511 170.366 115.856V115.856Z" fill="#4CCEAD"/>
<path d="M89.5189 191.073C69.2439 191.567 52.9604 208.081 52.9604 228.38V237.04C52.9604 242.562 57.4376 247.04 62.9604 247.04H245.426C250.949 247.04 255.426 242.562 255.426 237.04V228.38C255.426 207.77 238.639 191.061 217.932 191.061H196.371C196.24 177.992 190.627 165.484 180.725 156.233C170.705 146.873 157.115 141.614 142.945 141.614C128.775 141.614 115.185 146.873 105.166 156.233C95.2606 165.487 89.6463 177.999 89.5189 191.073Z" fill="#A3E0D0"/>
<path d="M178.753 190.733C178.753 186.328 177.823 181.966 176.017 177.896C174.211 173.826 171.563 170.128 168.226 167.013C164.888 163.898 160.926 161.427 156.566 159.742C152.205 158.056 147.532 157.188 142.812 157.188L142.812 190.733H178.753Z" fill="#DAF3FF"/>
<path d="M106.871 190.733C106.871 186.328 107.801 181.966 109.607 177.896C111.413 173.826 114.061 170.128 117.398 167.013C120.735 163.898 124.697 161.427 129.058 159.742C133.418 158.056 138.092 157.188 142.812 157.188L142.812 190.733H106.871Z" fill="#DAF3FF"/>
<ellipse cx="98.4852" cy="241.649" rx="17.9703" ry="18.5693" fill="#4E4E4E"/>
<ellipse cx="98.4852" cy="241.649" rx="11.3497" ry="11.728" fill="white"/>
<ellipse cx="208.703" cy="241.649" rx="17.9703" ry="18.5693" fill="#4E4E4E"/>
<ellipse cx="208.703" cy="241.649" rx="11.3497" ry="11.728" fill="white"/>
<rect x="160.782" y="201.515" width="14.3762" height="5.9901" rx="2.99505" fill="#4E4E4E"/>
<path fill-rule="evenodd" clip-rule="evenodd" d="M227.272 163.015C227.272 163.015 271 119.287 271 83.5099C271 59.3597 251.422 39.7822 227.272 39.7822C203.122 39.7822 183.544 59.3597 183.544 83.5099C183.544 116.902 227.272 163.015 227.272 163.015ZM227.55 106.704C240.283 106.628 250.544 96.243 250.467 83.5095C250.39 70.776 240.005 60.5157 227.272 60.5924C214.538 60.6691 204.278 71.0538 204.355 83.7873C204.432 96.5207 214.816 106.781 227.55 106.704Z" fill="#2182B1"/>
</svg>
