<svg width="372" height="307" viewBox="0 0 372 307" fill="none" xmlns="http://www.w3.org/2000/svg">
<path d="M3.75626 128.236C18.777 106.171 103.418 102.569 164.455 120.13C223.584 135.238 282.475 119.905 345.419 145.122C424.099 176.643 307.271 232.255 263.639 247.34C220.008 262.425 173.515 208.839 156.825 199.608C140.135 190.377 67.4157 196.456 44.7653 188.351C22.115 180.245 -11.2645 150.3 3.75626 128.236Z" fill="#10C093" fill-opacity="0.4"/>
<path d="M9.22109 41.8821C22.1018 -6.15941 94.6836 -14.0028 147.024 24.2342C197.729 57.1273 248.23 23.744 302.206 78.6486C369.676 147.279 269.493 268.363 232.078 301.208C194.662 334.053 154.794 217.381 140.482 197.282C126.17 177.183 63.8108 190.419 44.3875 172.771C24.9642 155.123 -3.65962 89.9236 9.22109 41.8821Z" fill="#10C093" fill-opacity="0.4"/>
<rect x="299.833" y="44.2402" width="7.66663" height="91.9995" rx="3.83331" fill="#DDEB88"/>
<rect x="292.154" y="67.9324" width="4.79164" height="14.4551" rx="2.39582" transform="rotate(-65 292.154 67.9324)" fill="#DDEB88"/>
<rect width="4.79164" height="14.0171" rx="2.39582" transform="matrix(-0.422618 -0.906308 -0.906308 0.422618 315.52 67.7495)" fill="#DDEB88"/>
<path d="M303.666 28.907C303.666 41.0802 303.666 28.907 303.666 50.9485C290.814 41.4081 286.417 41.0802 286.417 28.907C286.417 16.7338 296.381 6.86542 303.666 6.86542C303.666 23.3143 303.666 16.7338 303.666 28.907Z" fill="#10C093"/>
<path d="M303.666 28.907C303.666 41.0802 303.666 28.907 303.666 50.9485C316.168 41.4081 320.444 41.0802 320.444 28.907C320.444 16.7338 310.752 6.86542 303.666 6.86542C303.666 23.3143 303.666 16.7338 303.666 28.907Z" fill="#4CCEAD"/>
<path d="M277.267 58.2197C288.299 63.3643 277.267 58.2197 297.243 67.5349C283.165 75.1516 281.009 78.9981 269.976 73.8534C258.944 68.7088 254.211 55.5072 257.29 48.9045C272.198 55.8562 266.234 53.0751 277.267 58.2197Z" fill="#10C093"/>
<path d="M277.267 58.2197C288.299 63.3643 277.267 58.2197 297.243 67.5349C293.88 52.173 295.39 48.1584 284.357 43.0138C273.325 37.8691 260.285 42.4825 257.29 48.9045C272.198 55.8562 266.234 53.0751 277.267 58.2197Z" fill="#4CCEAD"/>
<path d="M330.733 58.2197C319.701 63.3643 330.733 58.2197 310.757 67.5349C324.835 75.1516 326.991 78.9981 338.024 73.8534C349.056 68.7088 353.789 55.5072 350.71 48.9045C335.802 55.8562 341.766 53.0751 330.733 58.2197Z" fill="#10C093"/>
<path d="M330.733 58.2197C319.701 63.3643 330.733 58.2197 310.757 67.5349C314.12 52.173 312.61 48.1584 323.643 43.0138C334.675 37.8691 347.715 42.4825 350.71 48.9045C335.802 55.8562 341.766 53.0751 330.733 58.2197Z" fill="#4CCEAD"/>
<path d="M103.866 150V150C99.3442 150 97.0832 150 95.2012 149.636C87.1841 148.085 80.9151 141.816 79.3641 133.799C79 131.917 79 129.656 79 125.134V93C79 78.9554 79 71.9331 82.3706 66.8886C83.8298 64.7048 85.7048 62.8298 87.8886 61.3706C92.9331 58 99.9554 58 114 58H172" stroke="#DDEB88" stroke-width="6" stroke-linecap="round" stroke-linejoin="round"/>
<path d="M172 54C172 48.4772 176.477 44 182 44H201V73H182C176.477 73 172 68.5228 172 63V54Z" fill="#DDEB88"/>
<path d="M217 52.5C217 51.1193 215.881 50 214.5 50H199V55H214.5C215.881 55 217 53.8807 217 52.5V52.5Z" fill="#DDEB88"/>
<path d="M217 64.5C217 63.1193 215.881 62 214.5 62H199V67H214.5C215.881 67 217 65.8807 217 64.5V64.5Z" fill="#DDEB88"/>
<path d="M129.516 127.284C112.592 127.696 99 141.481 99 158.425V164C99 169.523 103.477 174 109 174H258C263.523 174 268 169.523 268 164V158.425C268 141.221 253.988 127.274 236.704 127.274H218.706C218.597 116.365 213.911 105.925 205.646 98.203C197.283 90.3896 185.939 86 174.111 86C162.283 86 150.94 90.3896 142.576 98.203C134.308 105.927 129.622 116.371 129.516 127.284Z" fill="#2182B1"/>
<path d="M204 127C204 123.323 203.224 119.682 201.716 116.285C200.209 112.888 197.999 109.801 195.213 107.201C192.427 104.601 189.12 102.539 185.481 101.131C181.841 99.7242 177.94 99 174 99L174 127H204Z" fill="#2182B1"/>
<path d="M204 127C204 123.323 203.224 119.682 201.716 116.285C200.209 112.888 197.999 109.801 195.213 107.201C192.427 104.601 189.12 102.539 185.481 101.131C181.841 99.7242 177.94 99 174 99L174 127H204Z" fill="#DAF3FF"/>
<path d="M144 127C144 123.323 144.776 119.682 146.284 116.285C147.791 112.888 150.001 109.801 152.787 107.201C155.573 104.601 158.88 102.539 162.519 101.131C166.159 99.7242 170.06 99 174 99L174 127H144Z" fill="#C5ECFF"/>
<ellipse cx="137" cy="169.5" rx="15" ry="15.5" fill="#4E4E4E"/>
<ellipse cx="137" cy="169.5" rx="9.47368" ry="9.78947" fill="#E5E5E5"/>
<ellipse cx="229" cy="169.5" rx="15" ry="15.5" fill="#4E4E4E"/>
<ellipse cx="229" cy="169.5" rx="9.47368" ry="9.78947" fill="#E5E5E5"/>
<rect x="189" y="136" width="12" height="5" rx="2.5" fill="#4E4E4E"/>
<rect x="38.1592" y="71.1193" width="4.94755" height="59.3706" rx="2.47377" fill="#DDEB88"/>
<rect x="33.2036" y="86.4087" width="3.09222" height="9.3284" rx="1.54611" transform="rotate(-65 33.2036 86.4087)" fill="#DDEB88"/>
<rect width="3.09222" height="9.04574" rx="1.54611" transform="matrix(-0.422618 -0.906308 -0.906308 0.422618 48.2825 86.2907)" fill="#DDEB88"/>
<path d="M40.6327 61.2242C40.6327 69.08 40.6327 61.2242 40.6327 75.4484C32.3383 69.2917 29.5007 69.08 29.5007 61.2242C29.5007 53.3684 35.9313 47 40.6327 47C40.6327 57.6151 40.6327 53.3684 40.6327 61.2242Z" fill="#10C093"/>
<path d="M40.6328 61.2242C40.6328 69.08 40.6328 61.2242 40.6328 75.4484C48.7003 69.2917 51.4602 69.08 51.4602 61.2242C51.4602 53.3684 45.2056 47 40.6328 47C40.6328 57.6151 40.6328 53.3684 40.6328 61.2242Z" fill="#4CCEAD"/>
<path d="M23.5961 80.1408C30.7159 83.4608 23.5961 80.1408 36.4876 86.1522C27.4023 91.0675 26.0113 93.5498 18.8915 90.2298C11.7717 86.9098 8.71767 78.3903 10.7046 74.1294C20.3251 78.6155 16.4763 76.8207 23.5961 80.1408Z" fill="#10C093"/>
<path d="M23.5962 80.1408C30.716 83.4608 23.5962 80.1408 36.4877 86.1522C34.3172 76.2386 35.2918 73.6478 28.172 70.3278C21.0522 67.0078 12.6372 69.985 10.7047 74.1294C20.3252 78.6155 16.4764 76.8208 23.5962 80.1408Z" fill="#4CCEAD"/>
<path d="M58.1002 80.1408C50.9804 83.4608 58.1002 80.1408 45.2087 86.1522C54.294 91.0675 55.685 93.5498 62.8048 90.2298C69.9246 86.9098 72.9786 78.3903 70.9917 74.1294C61.3712 78.6155 65.22 76.8207 58.1002 80.1408Z" fill="#10C093"/>
<path d="M58.1001 80.1408C50.9803 83.4608 58.1001 80.1408 45.2086 86.1522C47.3791 76.2386 46.4045 73.6478 53.5243 70.3278C60.644 67.0078 69.0591 69.985 70.9916 74.1294C61.3711 78.6155 65.2199 76.8208 58.1001 80.1408Z" fill="#4CCEAD"/>
</svg>
